<?xml version="1.0" encoding="UTF-8"?>
<svg id="Layer_1" xmlns="http://www.w3.org/2000/svg" version="1.1" viewBox="0 0 1198.68 451.57">
  <!-- Generator: Adobe Illustrator 30.1.0, SVG Export Plug-In . SVG Version: 2.1.1 Build 136)  -->
  <defs>
    <style>
      .st0 {
        fill: #00b9ae;
      }

      .st1 {
        fill: #415a8e;
      }
    </style>
  </defs>
  <path id="d" class="st0" d="M91.66,28.61c65.34,0,101.32,27.93,101.32,104.63v55.85c0,73.95-35.24,103.06-101.32,103.06H-.11V28.61h91.77ZM57.15,240.23h34.51c31.94,0,43.32-14.16,43.32-51.14v-55.85c0-38.16-11.75-52.71-43.32-52.71h-34.51v159.7h0Z"/>
  <path id="o" class="st0" d="M295.62,79.28c48.91,0,85.39,27.66,85.39,80.58v51.71c0,52.92-36.48,80.58-85.39,80.58h-4.01c-48.91,0-85.39-27.66-85.39-80.58v-51.71c0-52.92,36.48-80.58,85.39-80.58,0,0,4.01,0,4.01,0ZM266.75,157.86v55.32c0,19.64,9.22,30.07,24.86,30.07h4.01c15.63,0,24.86-10.42,24.86-30.07v-55.32c0-20.04-9.22-29.67-24.86-29.67h-4.01c-15.63,0-24.86,9.62-24.86,29.67Z"/>
  <path id="u" class="st1" d="M709.04,291.54v-22.05h-7.22c-8.02,14.43-24.45,25.66-47.7,25.66h-4.01c-32.87,0-51.72-17.64-51.72-68.15V85.89h60.53v127.48c0,19.24,8.82,28.46,22.45,28.46h4.01c13.63,0,23.65-9.22,23.65-28.46v-127.48h60.53v205.65h-60.54Z"/>
  <path id="i" class="st1" d="M818.5-.7c18.84,0,30.87,11.63,30.87,25.26v3.61c0,13.63-12.03,24.86-30.87,24.86h-4.81c-18.84,0-30.87-11.22-30.87-24.86v-3.61c0-13.63,12.03-25.26,30.87-25.26h4.81ZM846.16,85.89v205.65h-60.53V85.89h60.53Z"/>
  <path id="r" class="st1" d="M923.14,84.69v20.85h7.22c7.62-16.84,22.45-24.46,40.89-24.46,26.86,0,42.89,14.83,42.89,65.75v25.26h-55.72v-16.44c0-14.03-5.61-22.05-17.64-22.05s-17.64,8.02-17.64,22.05v134.7h-60.53V84.69h60.53Z"/>
  <path id="e" class="st1" d="M1116.39,79.28c53.32,0,82.18,27.66,82.18,80.58v39.28h-113.85v18.04c0,24.45,12.43,32.47,27.66,32.47h4.01c15.23,0,25.66-8.02,25.66-33.27h55.73c0,48.11-28.06,75.77-81.38,75.77h-4.01c-53.32,0-84.99-27.66-84.99-80.58v-51.71c0-52.92,31.67-80.58,84.99-80.58h4.01ZM1084.72,151.84v8.02h56.53v-8.02c0-20.85-11.22-30.47-26.06-30.47h-4.01c-16.44,0-26.46,9.62-26.46,30.47Z"/>
  <g>
    <path id="q" class="st1" d="M569.04,70.56v290.56h-60.53v-93.02h-7.62c-9.62,14.43-24.46,24.05-46.1,24.05h-4.01c-38.48,0-56.53-27.26-56.53-80.58v-51.71c0-54.12,18.04-80.58,56.53-80.58h4.01c22.05,0,36.48,9.62,46.1,22.45h7.62v-31.17h60.53ZM483.65,128.19h-4.01c-14.83,0-24.86,10.02-24.86,30.07v54.92c0,19.64,10.02,30.07,24.86,30.07h4.01c15.63,0,24.86-10.42,24.86-30.07v-54.92c0-20.05-9.22-30.07-24.86-30.07Z"/>
    <path id="Pen-bottom" class="st1" d="M516.4,374.25h44.73c1.53,0,2.36,1.41,2.22,2.94-3.15,33.06-12.6,53.88-19.98,70.38-1.97,4.4-7.27,4.41-9.21,0-7.25-16.45-16.04-36.87-19.98-70.38-.18-1.52.69-2.94,2.22-2.94h0Z"/>
    <path id="Pen-side" class="st1" d="M576.53,70.56h7.07c.86,0,1.55.69,1.55,1.55v124.12h-8.62v-125.67h0Z"/>
    <path id="Pen-top" class="st1" d="M551.17,50.08h-24.69c-3.19,0-6.06,1.94-7.26,4.9l-3.57,8.84h46.6l-3.91-9.02c-1.24-2.86-4.06-4.71-7.18-4.71h0Z"/>
  </g>
</svg>