<?xml version="1.0" encoding="UTF-8"?>
<svg id="Layer_1" data-name="Layer 1" xmlns="http://www.w3.org/2000/svg" viewBox="0 0 1329.325 454.04">
  <defs>
    <style>
      .cls-1 {
        fill: #00b9ae;
      }

      .cls-2 {
        fill: #415a8e;
      }
    </style>
  </defs>
  <g id="Text">
    <path id="d" class="cls-1" d="M91.665,32.274c65.265,0,101.198,27.894,101.198,104.509v55.789c0,73.863-35.2,102.937-101.198,102.937H0V32.274h91.665ZM57.199,243.647h34.466c31.9,0,43.265-14.144,43.265-51.076v-55.789c0-38.112-11.733-52.648-43.265-52.648h-34.466v159.512Z"/>
    <path id="o" class="cls-1" d="M317.56,82.886c48.85,0,85.287,27.631,85.287,80.486v51.653c0,52.856-36.436,80.483-85.287,80.483h-4.005c-48.85,0-85.289-27.628-85.289-80.483v-51.653c0-52.856,36.439-80.486,85.289-80.486h4.005ZM288.729,161.369v55.259c0,19.621,9.21,30.031,24.826,30.031h4.005c15.616,0,24.826-10.41,24.826-30.031v-55.259c0-20.02-9.21-29.632-24.826-29.632h-4.005c-15.616,0-24.826,9.612-24.826,29.632Z"/>
    <path id="q" class="cls-2" d="M614.652,74.173v290.219h-60.461v-92.909h-7.608c-9.612,14.415-24.427,24.025-46.048,24.025h-4.005c-38.44,0-56.459-27.229-56.459-80.483v-51.653c0-54.058,18.019-80.486,56.459-80.486h4.005c22.024,0,36.436,9.612,46.048,22.425h7.608v-31.138h60.461ZM529.365,131.737h-4.005c-14.815,0-24.826,10.011-24.826,30.034v54.857c0,19.621,10.011,30.031,24.826,30.031h4.005c15.616,0,24.826-10.41,24.826-30.031v-54.857c0-20.022-9.21-30.034-24.826-30.034Z"/>
    <path id="u" class="cls-2" d="M768.792,291.905v-22.024h-7.209c-8.007,14.415-24.424,25.627-47.648,25.627h-4.005c-32.836,0-51.655-17.617-51.655-68.069V86.492h60.464v127.333c0,19.219,8.808,28.429,22.423,28.429h4.005c13.614,0,23.626-9.21,23.626-28.429v-127.333h60.464v205.413h-60.464Z"/>
    <path id="i" class="cls-2" d="M907.717,0c18.82,0,30.832,11.613,30.832,25.228v3.603c0,13.614-12.012,24.826-30.832,24.826h-4.803c-18.822,0-30.835-11.211-30.835-24.826v-3.603c0-13.614,12.012-25.228,30.835-25.228h4.803ZM935.344,86.492v205.413h-60.461V86.492h60.461Z"/>
    <path id="r" class="cls-2" d="M1041.446,86.492v20.821h7.209c7.608-16.818,22.423-24.427,40.843-24.427,26.827,0,42.844,14.817,42.844,65.669v25.228h-55.658v-16.419c0-14.014-5.607-22.021-17.619-22.021-11.611,0-17.619,8.007-17.619,22.021v134.542h-60.461V86.492h60.461Z"/>
    <path id="e" class="cls-2" d="M1247.24,82.886c53.255,0,82.085,27.631,82.085,80.486v39.238h-113.718v18.021c0,24.424,12.414,32.434,27.628,32.434h4.005c15.216,0,25.627-8.01,25.627-33.235h55.66c0,48.049-28.032,75.677-81.287,75.677h-4.005c-53.255,0-84.888-27.628-84.888-80.483v-51.653c0-52.856,31.633-80.486,84.888-80.486h4.005ZM1215.607,155.363v8.01h56.459v-8.01c0-20.821-11.211-30.43-26.026-30.43h-4.005c-16.417,0-26.428,9.609-26.428,30.43Z"/>
  </g>
  <path id="Pen-bottom" class="cls-2" d="M562.08,377.51h44.681c1.529,0,2.361,1.411,2.217,2.933-3.144,33.017-12.582,53.82-19.956,70.293-1.969,4.398-7.258,4.409-9.202,0-7.246-16.43-16.019-36.824-19.956-70.293-.179-1.519.687-2.933,2.217-2.933Z"/>
  <path id="Pen-side" class="cls-2" d="M622.136,74.173h7.062c.855,0,1.548.694,1.548,1.548v123.975h-8.61v-125.523h0Z"/>
  <path id="Pen-top" class="cls-2" d="M596.809,53.724h-24.664c-3.187,0-6.054,1.935-7.247,4.89l-3.565,8.833h46.55l-3.903-9.013c-1.238-2.859-4.056-4.709-7.171-4.709Z"/>
</svg>